<?xml version="1.0" standalone="no"?>
<!DOCTYPE svg PUBLIC "-//W3C//DTD SVG 20010904//EN"
 "http://www.w3.org/TR/2001/REC-SVG-20010904/DTD/svg10.dtd">
<svg version="1.0" xmlns="http://www.w3.org/2000/svg"
 width="192.000000pt" height="192.000000pt" viewBox="0 0 192.000000 192.000000"
 preserveAspectRatio="xMidYMid meet">
<metadata>
Created by potrace 1.14, written by Peter Selinger 2001-2017
</metadata>
<g transform="translate(0.000000,192.000000) scale(0.100000,-0.100000)"
fill="#000000" stroke="none">
<path d="M826 1909 c-16 -4 -33 -6 -37 -3 -4 2 -10 0 -14 -6 -3 -5 -16 -10
-29 -10 -12 0 -27 -5 -34 -12 -7 -7 -12 -9 -12 -5 0 15 -118 -60 -155 -98 -57
-60 -64 -70 -69 -99 -8 -47 -17 -67 -29 -65 -69 8 -126 -52 -162 -171 -22 -69
-6 -204 33 -275 5 -11 13 -52 16 -90 7 -83 16 -160 22 -198 3 -18 -1 -29 -10
-33 -8 -3 -19 -18 -24 -33 -9 -26 -9 -37 3 -111 9 -57 58 -210 66 -210 7 0 27
-56 29 -85 1 -5 8 -17 16 -27 9 -9 16 -22 18 -30 3 -23 82 -123 137 -173 75
-67 223 -163 265 -171 50 -9 216 0 239 14 11 6 43 22 70 35 107 50 170 93 240
159 22 21 43 38 47 38 5 0 8 5 8 10 0 6 9 21 21 33 11 12 36 47 56 77 62 97
69 104 96 105 14 1 36 9 49 17 55 36 123 231 107 307 -4 18 -18 43 -32 55 -22
19 -36 76 -18 76 4 0 8 26 10 58 5 97 7 115 24 172 17 57 28 107 29 125 0 36
-12 135 -20 162 -9 27 -7 34 10 50 38 34 77 136 57 149 -5 3 -9 2 -9 -3 0 -4
-9 -19 -19 -33 -15 -18 -30 -25 -61 -26 -37 -1 -46 4 -99 55 -65 62 -80 75
-131 111 -19 13 -38 29 -42 35 -4 5 -8 6 -8 1 0 -5 -8 -2 -17 7 -25 22 -177
97 -207 103 -14 2 -36 8 -50 14 -30 11 -340 11 -380 -1z"/>
</g>
</svg>
