<?xml version="1.0" encoding="utf-8"?>
<!-- Generator: Adobe Illustrator 23.0.0, SVG Export Plug-In . SVG Version: 6.00 Build 0)  -->
<svg version="1.1" id="Capa_1" xmlns="http://www.w3.org/2000/svg" xmlns:xlink="http://www.w3.org/1999/xlink" x="0px" y="0px"
	 viewBox="0 0 946.86 572.03" style="enable-background:new 0 0 946.86 572.03;" xml:space="preserve">
<path d="M84.95,269.52c-4.49,7.33-11.82,12.83-22,16.5c10.18,3.67,17.51,9.17,22,16.5c4.48,7.33,6.72,18.54,6.72,33.61v150.95
	c0,32.59,15.48,48.89,46.45,48.89h16.5v36.06h-22.61c-55.83,0-83.73-27.1-83.73-81.28V335.52c0-20.78-9.17-31.17-27.5-31.17H0
	v-36.67h20.78c18.34,0,27.5-10.39,27.5-31.17V81.28C48.28,27.1,76.18,0,132.01,0h22.61v36.06h-16.5c-30.97,0-46.45,16.3-46.45,48.89
	V235.9C91.67,250.98,89.43,262.18,84.95,269.52z"/>
<path d="M266.32,302.52c4.49-7.33,11.82-12.83,22-16.5c-10.18-3.67-17.51-9.17-22-16.5c-4.48-7.33-6.72-18.54-6.72-33.61V84.95
	c0-32.59-15.48-48.89-46.45-48.89h-16.5V0h22.61c55.83,0,83.73,27.1,83.73,81.28v155.23c0,20.78,9.17,31.17,27.5,31.17h20.78v36.67
	h-20.78c-18.34,0-27.5,10.39-27.5,31.17v155.23c0,54.18-27.9,81.28-83.73,81.28h-22.61v-36.06h16.5c30.97,0,46.45-16.3,46.45-48.89
	V336.13C259.6,321.05,261.84,309.85,266.32,302.52z"/>
<g>
	<path d="M440.64,352.8c14.43-8.63,31.96-12.94,52.62-12.94v20.79l-5.09-0.42c-24.61,0-43.85,7.71-57.71,23.13
		c-13.86,15.42-20.79,36.85-20.79,64.29v115.42h-21.22v-221.5h20.37v48.37C415.61,373.8,426.22,361.43,440.64,352.8z"/>
	<path d="M550.12,282.78c-3.39-3.25-5.09-7.28-5.09-12.09c0-4.81,1.7-8.91,5.09-12.31s7.49-5.09,12.3-5.09
		c4.81,0,8.91,1.63,12.31,4.88c3.39,3.26,5.09,7.29,5.09,12.09c0,4.81-1.7,8.91-5.09,12.31s-7.5,5.09-12.31,5.09
		C557.62,287.66,553.52,286.04,550.12,282.78z M551.82,341.55h21.22v221.5h-21.22V341.55z"/>
	<path d="M692.48,550.32c-16.83-9.61-30.06-22.98-39.67-40.1c-9.62-17.11-14.43-36.42-14.43-57.92c0-21.49,4.81-40.8,14.43-57.92
		c9.61-17.11,22.84-30.48,39.67-40.1c16.83-9.61,35.71-14.43,56.65-14.43c20.93,0,39.81,4.81,56.65,14.43
		c16.83,9.62,30.05,22.99,39.67,40.1c9.61,17.12,14.43,36.43,14.43,57.92c0,21.5-4.81,40.81-14.43,57.92
		c-9.62,17.12-22.85,30.49-39.67,40.1c-16.83,9.62-35.72,14.43-56.65,14.43C728.19,564.74,709.3,559.94,692.48,550.32z
		 M794.74,533.77c13.43-7.92,24.04-18.95,31.82-33.1c7.78-14.14,11.67-30.27,11.67-48.37c0-18.1-3.89-34.22-11.67-48.37
		c-7.78-14.14-18.39-25.17-31.82-33.1c-13.44-7.92-28.64-11.88-45.61-11.88c-16.97,0-32.18,3.96-45.62,11.88
		c-13.44,7.92-24.05,18.96-31.82,33.1c-7.78,14.15-11.67,30.27-11.67,48.37c0,18.11,3.89,34.23,11.67,48.37
		c7.78,14.15,18.39,25.18,31.82,33.1c13.43,7.92,28.64,11.88,45.62,11.88C766.1,545.65,781.3,541.69,794.74,533.77z"/>
	<path d="M925.64,248.2h21.22v314.85h-21.22V248.2z"/>
</g>
</svg>
