<?xml version="1.0" encoding="utf-8"?>
<!-- Generator: Adobe Illustrator 21.0.0, SVG Export Plug-In . SVG Version: 6.00 Build 0)  -->
<svg version="1.1" id="a36694c7-9e7e-4fa0-bd34-1ff06c34a584"
	 xmlns="http://www.w3.org/2000/svg" xmlns:xlink="http://www.w3.org/1999/xlink" x="0px" y="0px" viewBox="0 0 1089.9 822.5"
	 style="enable-background:new 0 0 1089.9 822.5;" xml:space="preserve">
<style type="text/css">
	.st0{fill:#6C63FF;}
	.st1{fill:#F2F2F2;}
	.st2{fill:#3F3D56;}
	.st3{fill:#2F2E41;}
	.st4{fill:#FFB8B8;}
	.st5{fill:#D0CDE1;}
	.st6{fill:#3D3025;}
	.st7{fill:#56463B;}
</style>
<title>certificate</title>
<path class="st0" d="M933.7,445.6c0,126.5-74.2,238.4-187.9,306.6c-72.9,43.7-162.1,69.4-258.3,69.4
	c-128.3,0-226.1-48.5-299.7-122.7C120,630.4,72.8,540,41.3,445.6C-99.2,23.8,135.5-91.3,487.5,69.6
	C711.7,172.1,933.7,237.9,933.7,445.6z"/>
<path class="st1" d="M745.9,224.8v528.4c-72.9,43.7-162.1,69.4-258.3,69.4c-128.3,0-226.1-48.5-299.7-122.7v-475L745.9,224.8z"/>
<path class="st2" d="M241.5,482.2c29.2-9.3,59.5-14.7,90.2-16.1c15.3-0.7,30.7-0.1,46,1.8c15.1,2,30,5.2,44.6,9.6
	c14.4,4.2,28.6,9,43,13.3c14.6,4.5,29.4,8.1,44.5,10.8c14.9,2.7,30,4.5,45.2,5.4c15,0.9,30.2,1,45.1-0.6c14-1.3,27.7-4.8,40.6-10.3
	c12.1-5.3,23.2-12.4,33-21.2c2.4-2.2,4.8-4.5,7.1-6.8c1.3-1.4-0.8-3.5-2.1-2.1c-19.1,20-44.3,32.4-71.5,36.5
	c-14.9,2.3-30,2.4-45,1.8c-15.3-0.6-30.6-2.1-45.7-4.6c-14.9-2.5-29.7-5.8-44.3-10.1c-14.3-4.1-28.4-8.9-42.6-13.2
	c-14.4-4.5-29-8-43.9-10.5c-14.9-2.3-30-3.3-45-3.1c-30.1,0.5-60,4.9-89,13.2c-3.6,1-7.3,2.1-10.9,3.2
	C238.9,479.9,239.7,482.8,241.5,482.2L241.5,482.2z"/>
<path class="st2" d="M241.5,558.2c29.2-9.3,59.5-14.7,90.2-16.1c15.3-0.7,30.7-0.1,46,1.8c15.1,2,30,5.2,44.6,9.6
	c14.4,4.2,28.6,9,43,13.3c14.6,4.5,29.4,8.1,44.5,10.8c14.9,2.7,30,4.5,45.2,5.4c15,0.9,30.2,1,45.1-0.6c14-1.3,27.7-4.8,40.6-10.3
	c12.1-5.3,23.2-12.4,33-21.2c2.4-2.2,4.8-4.5,7.1-6.8c1.3-1.4-0.8-3.5-2.1-2.1c-19.1,20-44.3,32.4-71.5,36.5
	c-14.9,2.3-30,2.4-45,1.8c-15.3-0.6-30.6-2.1-45.7-4.6c-14.9-2.5-29.7-5.8-44.3-10.1c-14.3-4.1-28.4-8.9-42.6-13.2
	c-14.4-4.5-29-8-43.9-10.5c-14.9-2.3-30-3.3-45-3.1c-30.1,0.5-60,4.9-89,13.2c-3.6,1-7.3,2.1-10.9,3.2
	C238.9,555.9,239.7,558.8,241.5,558.2L241.5,558.2z"/>
<path class="st2" d="M241.5,413.2c29.2-9.3,59.5-14.7,90.2-16.1c15.3-0.7,30.7-0.1,46,1.8c15.1,2,30,5.2,44.6,9.6
	c14.4,4.2,28.6,9,43,13.3c14.6,4.5,29.4,8.1,44.5,10.8c14.9,2.7,30,4.5,45.2,5.4c15,0.9,30.2,1,45.1-0.6c14-1.3,27.7-4.8,40.6-10.3
	c12.1-5.3,23.2-12.4,33-21.2c2.4-2.2,4.8-4.5,7.1-6.8c1.3-1.4-0.8-3.5-2.1-2.1c-19.1,20-44.3,32.4-71.5,36.5
	c-14.9,2.3-30,2.4-45,1.8c-15.3-0.6-30.6-2.1-45.7-4.6c-14.9-2.5-29.7-5.8-44.3-10.1c-14.3-4.1-28.4-8.9-42.6-13.2
	c-14.4-4.5-29-8-43.9-10.5c-14.9-2.3-30-3.3-45-3.1c-30.1,0.5-60,4.9-89,13.2c-3.6,1-7.3,2.1-10.9,3.2
	C238.9,410.9,239.7,413.8,241.5,413.2L241.5,413.2z"/>
<path class="st2" d="M238,282.7c7.3-3.2,15.6-2.7,23.1-0.8c8.1,2,15.8,5.5,23.8,7.9c14.3,4.3,29.5,4.6,44,0.8
	c8.1-2.1,15.9-5.4,23-9.9c1.6-1,0.1-3.6-1.5-2.6c-12.7,7.9-27.4,12.1-42.3,12.1c-7.5,0-15-1.1-22.2-3.3c-7.9-2.4-15.5-5.8-23.6-7.9
	c-8.5-2.2-17.7-2.6-25.8,1C234.7,280.9,236.2,283.5,238,282.7L238,282.7z"/>
<circle class="st2" cx="460.9" cy="696.8" r="46"/>
<circle class="st1" cx="212.9" cy="105.8" r="25"/>
<circle class="st1" cx="431.9" cy="176.8" r="17"/>
<circle class="st1" cx="155.9" cy="339.8" r="17"/>
<rect x="85.5" y="213.5" class="st2" width="1.9" height="335.2"/>
<ellipse class="st2" cx="86.8" cy="436.6" rx="36.6" ry="83.4"/>
<ellipse class="st2" cx="86.8" cy="246.3" rx="36.6" ry="83.4"/>
<path class="st2" d="M87.7,178.1l-1.8-0.5c0.1-0.4,11.1-38.1-7-62.5c-10.2-13.7-27.8-20.7-52.1-20.7v-1.9c25,0,43,7.2,53.6,21.5
	C99.2,139.1,87.9,177.7,87.7,178.1z"/>
<circle class="st2" cx="26.9" cy="93.5" r="23.4"/>
<path class="st3" d="M770.7,624.7L753.2,786h121l5.3-12.3l7,12.3h114c0,0-8.8-166.6-24.5-171.8S770.7,624.7,770.7,624.7z"/>
<circle class="st4" cx="874.2" cy="209.2" r="61.4"/>
<path class="st4" d="M839.1,247.7c0,0,5.3,56.1,0,59.6s84.2,1.8,84.2,1.8s-12.3-50.8,0-75.4L839.1,247.7z"/>
<path class="st5" d="M870.7,295.1c0,0,45.1,7,48.9-7l23,31.6l1.8,315.6c0,0-187.6,22.8-194.6-14s71.9-327.9,71.9-327.9l19.9-1.3
	C841.4,292,867.2,295.1,870.7,295.1z"/>
<path class="st2" d="M841.1,277.6l-30.1,10.4l-85.9,21l3.5,210.4c0,0-73.6,210.4-40.3,226.2s80.6-21,94.7-47.3s63.1-391,63.1-398
	S841.1,277.6,841.1,277.6z"/>
<path class="st2" d="M918.4,277.6l11.9,10.4l84.2,38.6l-42.1,212.1c0,0,56.1,192.9,35.1,203.4c-21,10.5-52.6,40.3-59.6,22.8
	S899.5,297,918.4,277.6z"/>
<path class="st4" d="M967.1,558.1c0,0-78.9-33.3-80.6-3.5s89.4,50.8,89.4,42.1S967.1,558.1,967.1,558.1z"/>
<path class="st4" d="M774.2,545.8c0,0,91.2,68.4,56.1,85.9s-80.6-61.4-80.6-61.4L774.2,545.8z"/>
<path class="st2" d="M737.4,314.4l-12.3-5.3L627,470.4c0,0-17.5,42.1,14,61.4s105.2,77.1,105.2,77.1l42.1-64.9
	c0,0-85.9-40.3-80.6-56.1s33.3-57.9,33.3-57.9L737.4,314.4z"/>
<path class="st2" d="M991.6,323.1l22.8,3.5c0,0,94.7,185.8,71.9,220.9s-115.7,84.2-115.7,84.2s-1.8-57.9-17.5-78.9l54.4-21
	L977.6,416L991.6,323.1z"/>
<g>
	<path class="st6" d="M956.7,223.2c6.9-11.4,8.1-17,12.2-35c3.1-14,3.6-25.2-2.8-38.6c-1-2.2-2.4-4.2-3.8-6.2
		c8.6,2.4,18,4.3,19.8,3.8c3.8-1,1.4-4.4-7.1-9.5c-3.1-1.9-8.5-4.8-12-6.4c-3.5-1.6-6.4-3.2-6.5-3.4c-0.1-0.2,1.6-1.6,3.8-3.2
		c4.7-3.3,13.4-10.9,15.1-13.3c1.1-1.5,1.2-2.5,0.4-6.2c-2-10.1-9.8-15.3-20.6-14c-10.3,1.2-15.3,3.9-18.7,9.8
		c-2.6,4.6-3.1,9.2-1.9,16.1c0.1,0.5,0.2,0.9,0.2,1.3c-0.8-0.5-1.7-0.9-2.6-1.3c-2.1-0.7-4.5-0.5-6.7-0.4c-7,0.1-17.6-1.2-22.8-2
		c-2-0.3-4-0.3-6,0c-9.1,1.2-36.8,5-47.5,12c-8.6,5.6-24.8,18.1-30.9,26.3c-0.8,1.2-4.6,5.6-8.4,10c-4.1,4.8-2.6,12.2,3.1,14.9
		c1.5,0.7,3.1,1.6,5,2.5c2.1,1.3,4.5,2,7,1.9c1.8-0.2,3.4-0.8,5-1.5c15-6.4,34.3-8.9,48.7,6.7c0.2,0.1,0.3,0.2,0.5,0.3
		c5.5,6.2,6,15.4,10.2,22.6c6.1,10.3,21.4-16.5,40.7,8.8c4,5.3-19.3,39-14.6,43.5c0.7,0.7,1.5,1.4,2.4,1.7c1.4,0.3,2.7-0.8,3.7-1.8
		C938.5,246.5,946.5,250.4,956.7,223.2z"/>
	<path class="st7" d="M920.3,126c-21.6-2.1-54,20.2-54,20.2s18.4-3.7,32.6-6c0,0-21.7,11.6-25.9,15.7c0,0,52.9-25.6,61.2-33.7
		L920.3,126z"/>
	<path class="st7" d="M937.7,134.9c0,0-13.5,16.6-38.3,23.9C899.4,158.8,919.1,148.9,937.7,134.9z"/>
	<path class="st7" d="M939.8,134.7c-7,12.5-18.3,21.9-31.8,26.7c-0.2,0.1-0.5,0.2-0.7,0.3c-11.8,4.3-7.8,22.1-7.8,22.1l16.6-16.3
		c0,0-7.3,26.5-20,35.2c0,0,21.4-2.8,47.9-75.2L939.8,134.7z"/>
	<path d="M933.4,118.3l0.1-2.5c-0.4-0.8,0.4-1.7,1.3-1.3l23.9,10.6c1,0.4,1.3,1.8,0.5,2.6l-1.4,1.5L933.4,118.3z"/>
	<path class="st7" d="M957.9,150.1c0,0,13.2,21.7,3.2,43.3c-10,21.7-11.5,32.8-13.7,39.9s0,2.1,0,2.1s-3-11.3,7.5-34.8
		c10.4-23.5,9.8-29.3-0.5-54.1L957.9,150.1z"/>
	<path class="st7" d="M953.6,157.7c0,0,8.8,17.6-1.1,35.5c-9.9,17.9-9.5,31.7-9.5,31.7s-3.2-6.3,4.2-23.9c0,0-2.6,2-5.8,13
		c0,0-1.5-16.7,2.5-19.6C947.9,191.6,956.5,188.8,953.6,157.7z"/>
	<path class="st7" d="M961,140.7l-2.9-2.9c0,0,4.4,4.5,24.2,8.2C982.3,146,967.8,144.4,961,140.7z"/>
	<path class="st7" d="M950.8,126.8c0,0,19.6,7.1,29.3,15.8c0,0,5.8,5-6-3.4C962.4,130.9,950.8,126.8,950.8,126.8z"/>
	<path class="st7" d="M943.5,94.2c0,0-2,1.3-3.3,5.7c-1.3,4.2,1.4-2.4,8.8-4.6c0.4-0.1,0.8,0.3,0.6,0.7c-1.8,3.3-6.2,15.1-3.6,12.4
		c3.1-3.1,8.6-5,11.1-6.9c0.4-0.3,0.9,0.1,0.7,0.5c-1.1,3.3-1.7,11.9-3.7,14.8c-2.5,3.6,15.3-10.8,17.2-13.7s-2.8-10.8-12.6-12
		C949,89.9,943.5,94.2,943.5,94.2z"/>
</g>
</svg>
